<?xml version="1.0" encoding="UTF-8"?>
<svg id="Layer_1" data-name="Layer 1" xmlns="http://www.w3.org/2000/svg" version="1.1" viewBox="0 0 1018.1 389.3">
  <defs>
    <style>
      .cls-1 {
        fill: #e72326;
      }

      .cls-1, .cls-2 {
        stroke-width: 0px;
      }

      .cls-2 {
        fill: #244994;
      }
    </style>
  </defs>
  <path class="cls-1" d="M220.2,179.4c18-25.8,46-37,72.1-18.9,25.2,17.4,30.5,55.5,9.7,85.5-29.3,42.3-79.7,62.5-128.3,54.6-27-4.4-50.4-20.6-63.9-44.3-24.4-42.7-23.3-96.9,6-139.3,20.8-30,58.2-38.4,83.4-21,26.2,18.1,25.4,48.3,7.7,74.2-1.7,2.4-1.9,5.4-.7,8.1s3.8,4.4,6.7,4.6c2.9.2,5.7-1.1,7.3-3.5"/>
  <path class="cls-2" d="M396.4,92.6c6.8,0,12.6,1,17.6,3.1s8.7,5.2,11.3,9.4,3.9,9.4,3.9,15.7-1.4,11.6-4.2,15.9c-2.8,4.3-6.7,7.5-11.7,9.6s-10.7,3.2-17.1,3.2h-21v35.7h-15.7v-92.6h36.9ZM408.9,132.8c2.6-2.5,4-6.4,4-11.6s-1.3-8.9-4-11.5c-2.6-2.5-6.6-3.8-11.8-3.8h-21.9v30.8h21.9c5.2,0,9.1-1.3,11.8-3.8h0Z"/>
  <path class="cls-2" d="M505,182.4c-5.1-3-9.2-7.3-12.1-12.8s-4.4-12-4.4-19.4,1.4-13.9,4.3-19.3,6.9-9.6,12.1-12.5,11.2-4.4,18.1-4.4,12.9,1.5,18.1,4.4c5.2,2.9,9.2,7.1,12.1,12.6,2.9,5.5,4.3,11.9,4.3,19.2s-1.4,13.9-4.3,19.4c-2.9,5.5-6.9,9.8-12.2,12.8s-11.3,4.5-18,4.5-12.9-1.5-18-4.5h0ZM533.6,171.3c2.7-2.1,4.6-5,5.9-8.7s1.8-7.8,1.8-12.3-.6-8.6-1.9-12.3c-1.2-3.6-3.2-6.5-5.9-8.6s-5.9-3.1-9.8-3.1h-1.2c-3.9,0-7.2,1.1-9.9,3.2s-4.7,5-5.9,8.6-1.9,7.7-1.9,12.1c0,6.8,1.5,12.5,4.4,17.2s7.4,7,13.3,7h1.1c4,0,7.3-1.1,10-3.2h0Z"/>
  <path class="cls-2" d="M631.8,115.6l-25.8,69.7h-19.5l-25.1-69.7h16.3l11.3,33.4c2.9,8.7,5.2,16.1,6.3,22.9,0,.8.6,1.4,1.2,1.4s1.1-.6,1.3-1.4c1-6.8,2.3-12,6.3-23.5l11.3-32.9h16.4Z"/>
  <path class="cls-2" d="M643.1,103.3c-1.8-1.8-2.7-4.1-2.7-6.8s.9-4.7,2.7-6.6,4.1-2.9,6.9-2.9,4.9,1,6.8,2.9c1.8,1.9,2.7,4.1,2.7,6.6s-.9,4.9-2.7,6.8c-1.8,1.8-4.1,2.7-6.8,2.7s-5.1-.9-6.9-2.7ZM657.8,115.6v69.7h-15.6v-69.7s15.6,0,15.6,0Z"/>
  <path class="cls-2" d="M692.6,115.6c.2,3.9-.6,7.6-3.3,13.5-.5,1.2,0,2.1,1,2.1s1.1-.5,1.6-1.2c5.6-9.3,13.5-16.1,24.3-16.1s8.4.7,11.9,2.2,6.3,4,8.4,7.5c2.1,3.6,3.2,8.2,3.2,14v47.6h-15.5v-45c0-4.5-1.3-7.9-4-10.1-2.7-2.2-6.2-3.3-10.8-3.3h-.4c-2.9,0-5.6.6-8.1,1.8-2.5,1.2-4.5,2.9-6,5.2-1.5,2.2-2.2,4.9-2.2,8.1v43.3h-15.5v-69.7h15.4Z"/>
  <path class="cls-2" d="M873.8,182.4c-5.2-3-9.1-7.3-11.8-12.8s-4.1-11.8-4.1-19.1,1.5-13.8,4.4-19.4c2.9-5.6,7-9.8,12.1-12.8,5.2-3,11.1-4.5,17.8-4.5s12.8,1.5,17.8,4.4,8.9,7.2,11.6,12.7c2.7,5.5,4,12,4,19.6v3.2l-52,.3c.2,3.9,1.1,7.4,2.7,10.6,1.6,3.2,3.8,5.6,6.6,7.3s5.9,2.6,9.5,2.6h.7c3,0,5.7-.6,8.2-1.7,2.5-1.2,4.6-2.8,6.2-4.8,1.6-2,2.7-4.3,3.3-6.8h16c-.8,5-2.8,9.5-5.9,13.4s-7.2,6.9-12.1,9.1-10.5,3.3-16.5,3.3-13.3-1.5-18.5-4.5h0ZM909.9,142.9c-.3-3.2-1.1-6.2-2.6-8.8-1.4-2.6-3.4-4.6-5.9-6.1-2.5-1.5-5.5-2.2-8.9-2.2h-1c-4.8,0-8.9,1.7-12.2,4.9-3.3,3.3-5.2,7.4-5.6,12.2h36.2Z"/>
  <path class="cls-2" d="M375.5,217.1v26.1h41v12.9h-41v40.5h-16v-92.6h61.8v13.1h-45.8Z"/>
  <path class="cls-2" d="M572,280c1.2,2,3,3.6,5.1,4.8s4.7,1.7,7.6,1.7,7-.8,9.5-2.4,3.8-3.8,3.8-6.6-.9-4.5-2.6-6c-1.7-1.5-4.5-2.7-8.3-3.6l-13.9-3.1c-5.9-1.3-10.1-3.5-12.8-6.7-2.7-3.2-4-7.2-4-12.1s2.6-11.6,7.8-15.2c5.2-3.6,12-5.4,20.3-5.4s9.9,1,14.2,2.9,7.7,4.8,10.4,8.4c2.7,3.7,4.1,8.1,4.4,13.2h-16.2c-.2-4.3-1.6-7.5-4.2-9.6s-5.8-3.2-9.5-3.2-6.5.7-8.6,2.2-3.1,3.5-3.1,6.1.6,3.8,1.8,5.2,3.3,2.5,6.3,3.1l13.5,3.1c6.4,1.4,11.4,3.8,14.9,7.1,3.5,3.3,5.3,7.6,5.3,12.8s-2.6,12.2-7.7,16c-5.1,3.8-12.3,5.7-21.4,5.7s-12-1.1-16.6-3.4-8-5.4-10.3-9.3-3.6-8.3-3.9-13.1h16c.2,2.9.9,5.3,2.2,7.4h0Z"/>
  <path class="cls-2" d="M771.1,168.5c1.2,2,3,3.7,5.2,4.8,2.2,1.2,4.7,1.7,7.6,1.7s7-.8,9.5-2.4c2.5-1.6,3.8-3.8,3.8-6.6s-.9-4.5-2.6-6c-1.7-1.5-4.5-2.7-8.3-3.6l-13.9-3.1c-5.8-1.3-10.1-3.5-12.8-6.7s-4-7.2-4-12.1,2.6-11.6,7.8-15.2,12-5.4,20.3-5.4,9.9,1,14.2,2.9,7.7,4.8,10.4,8.4,4.1,8.1,4.4,13.2h-16.2c-.2-4.3-1.6-7.5-4.2-9.6s-5.8-3.2-9.5-3.2-6.5.7-8.6,2.2-3.1,3.5-3.1,6.1.6,3.8,1.8,5.2,3.3,2.5,6.3,3.1l13.5,3.1c6.4,1.4,11.4,3.8,14.9,7.1s5.3,7.6,5.3,12.8-2.6,12.2-7.7,16c-5.2,3.8-12.3,5.7-21.4,5.7s-12-1.1-16.6-3.4c-4.5-2.3-8-5.4-10.3-9.3s-3.6-8.3-3.9-13.1h16c.2,2.9.9,5.3,2.2,7.4h-.1Z"/>
  <path class="cls-2" d="M644.6,200.7v96h-15.6v-96h15.6Z"/>
  <path class="cls-2" d="M713.3,230.9c4.9,3.7,7.3,9.8,7.3,18.3v29.8c0,2,.2,3.4.6,4s1.5,1,3.3,1,1.9,0,2.9-.3v12.7c-3.2.6-6.2,1-8.9,1-4,0-6.7-.9-8.4-2.6-2.4-2.4-2.3-7,0-12.5.8-2-.2-2.6-1-2.6s-1.1.4-1.6,1.2c-5.8,11.2-13.4,17.5-25.4,17.5s-10.1-1.3-14.1-3.9c-2.7-1.8-4.8-4.1-6.3-6.9s-2.3-6.1-2.3-9.7c0-7,2.6-12.4,7.8-16.2,3.4-2.3,8.6-4.1,15.5-5.3l8.2-1.2c3.2-.4,5.9-.9,7.9-1.6,2-.7,3.6-1.7,4.7-3,1.1-1.3,1.7-2.8,1.7-4.6h0c0-2.8-1.2-4.9-3.5-6.5s-5.5-2.3-9.6-2.3-5.2.5-7.3,1.5-3.8,2.5-5,4.4-2,4.2-2.3,6.8h-15.9c.2-5,1.5-9.3,4-13,2.5-3.6,5.9-6.4,10.2-8.5,4.4-2,9.6-3.1,15.7-3.1,9.7,0,16.9,1.8,21.8,5.5h0ZM700.8,262.5c-2,1.1-4.5,2-7.6,2.8l-5.8,1.4c-2,.5-3.7,1-5.1,1.5-1.4.6-2.6,1.2-3.5,1.8-2.2,1.6-3.3,4-3.3,7.4s.9,4.7,2.8,6.4c2.1,1.8,4.9,2.6,8.4,2.6s5.9-.6,8.8-1.9c2.9-1.3,5.4-3.5,7.3-6.5,2-3,2.9-6.9,2.9-11.5v-9.2c-1.2,2.3-2.8,4-4.8,5.1h-.1Z"/>
  <path class="cls-2" d="M476.3,114.9c-11.5,0-16.7,6.3-22.2,19.2-.4.9-1,1.5-1.6,1.5-1,0-1.6-.8-1.1-2.1,2.2-6,4-11.3,3.7-17.9h-15.2v69.7h15.5v-35.7c0-6,.6-10.5,3.5-13.5s7.1-4.6,13.7-4.6,11.1,1.1,11.1,1.1v-17.1c.1,0-4.1-.6-7.3-.6h-.1Z"/>
  <path class="cls-2" d="M701.1,204h-16.7l-14.1,14.6h14.3s2.6-2.9,4.1-4.7c2.6-3.1,3.1-3.7,3.8-3.7s1.2.7,3.4,3.8c1.3,1.7,3.7,4.7,3.7,4.7h15.7l-14.1-14.6h-.1Z"/>
  <path class="cls-2" d="M550.5,227l-30,77c-1.8,4.6-3.6,8.3-5.6,11.2-2,2.9-4.5,5.3-7.5,7.2-3.1,1.9-6.9,2.8-11.6,2.8s-4.1,0-6.2-.3c-2.1-.2-4.2-.5-6.3-.8l-.3-14.8c4.9,1.8,9.3,2.5,13.1,2.3,3.8-.2,6.3-2.1,7.5-5.5l4.7-12.8-28.7-66.3h16.9s13.1,32.4,13.5,33.4c2.7,6.7,4.2,11.5,5,17,0,.9.6,1.4,1.3,1.4s1.1-.4,1.3-1.4c1.2-6.4,2-9.4,5.1-18.5.5-1.5,11.4-31.9,11.4-31.9h16.4Z"/>
  <path class="cls-2" d="M466.6,226.3c-11.5,0-16.7,6.3-22.2,19.2-.4.9-1,1.5-1.6,1.5-1,0-1.6-.8-1.1-2.1,2.2-6,4-11.3,3.7-17.9h-15.2v69.6h15.5v-35.7c0-6,.6-10.5,3.5-13.5s7.1-4.6,13.7-4.6,11.1,1.1,11.1,1.1v-17.1c.1,0-4.1-.6-7.3-.6h-.1Z"/>
  <path class="cls-2" d="M756.2,227c.2,3.9-.6,7.6-3.3,13.6-.5,1.2,0,2.1,1,2.1s1.1-.5,1.6-1.2c5.6-9.3,13.5-16.1,24.3-16.1s8.4.7,11.9,2.2,6.3,3.9,8.4,7.5c2.1,3.6,3.2,8.2,3.2,14v47.6h-15.5v-45c0-4.6-1.3-7.9-4-10.1-2.7-2.2-6.2-3.3-10.8-3.3h-.4c-2.9,0-5.6.6-8.1,1.8s-4.5,2.9-6,5.1c-1.5,2.2-2.2,4.9-2.2,8.1v43.3h-15.5v-69.6h15.4Z"/>
  <path class="cls-2" d="M813.2,212.3v-13.4l1.5.3c2.3.5,4.6.7,6.8.7s4.2-.6,5.4-1.8,1.7-3.2,1.7-6.1v-76.3h15.9v78c0,7-1.9,12-5.6,15-3.7,3-9.5,4.5-17.4,4.5s-2.4,0-3.9-.2c-1.5-.1-3.5-.4-4.5-.6h0ZM836.5,106c-2.7,0-5-.9-6.8-2.7s-2.7-4.1-2.7-6.8.9-4.7,2.7-6.6,4.1-2.9,6.8-2.9,5,1,6.8,2.9c1.9,1.9,2.8,4.1,2.8,6.6s-.9,4.9-2.8,6.8c-1.9,1.8-4.1,2.7-6.8,2.7Z"/>
</svg>